<svg xmlns="http://www.w3.org/2000/svg" viewbox="0 0 755 193" width="755" height="193"><path fill="#092D4F" d="m48 77-5 5c6.947 8.337 17.9 9.911 28.063 12.063l3.586.775C91.175 98.735 91.175 98.735 108 100v2l1.69.107c7.668.613 14.974 2.257 22.435 4.08l1.937.47c9.977 2.437 19.532 5.202 28.938 9.343l3.14 1.379c4.942 2.312 4.942 2.312 6.86 3.621 1 3 1 3 .11 5.375-.45.866-.898 1.733-1.36 2.625l-1.328 2.625c-1.298 2.168-2.55 3.701-4.422 5.375-3.495-1.165-3.856-1.957-5.813-4.938-2.67-3.704-4.547-5.255-9.187-6.062h-4l3.25 2.063c2.77 1.95 4.373 3.622 5.938 6.625 1.762 3.22 2.41 4.219 5.812 5.312-2.294 7.142-8.283 10.86-14.578 14.484-10.314 5.003-21.897 8.492-33.422 7.516v-2l-1.691.477c-10.8 2.448-20.157-.967-29.52-6.309C66.748 143.925 57.812 130.185 53 112c-.571-2.753-.887-5.183-1-8l1-1-1.941-.918C35.647 94.617 35.647 94.617 33 88c-.063-2.5-.063-2.5 1-5 8.38-8.007 8.38-8.007 14-6Zm35 28c2.512 2.512 4.379 2.787 7.813 3.625 1.037.26 2.075.52 3.144.79 2.779.534 5.225.7 8.043.585-2.743-2.743-5.16-2.853-8.938-3.625-1.246-.26-2.493-.52-3.777-.79-3.221-.673-3.221-.673-6.285-.585Zm34 8-1 2c11.296 3.443 11.296 3.443 23 4-2.672-2.672-5.125-3.093-8.75-4.125l-3.672-1.07c-3.34-.751-6.173-.962-9.578-.805Zm-19 4 4 1Zm15 4 4 1Zm22 11v2l2-1-2-1Zm2 2 1 2Zm-3 11-4 5 4-2v-3Zm-6 5-2 3 4-2-2-1Z"/><path fill="#F5BA1E" d="m52 104 12 2v2l9 1v2l1.594.286c7.764 1.468 15.391 3.425 23.028 5.435 2.24.588 4.482 1.163 6.726 1.738C127.48 124.481 127.48 124.481 135 132c1.978 3.957 2.1 7.743 1 12-6.001 7.76-16.162 15.167-26 17-13.808 1.614-25.33-4.802-36-13-12.187-9.962-19.783-25.417-21.813-40.938L52 104Z"/><path fill="#F3BB22" d="M115.031 16.32 117 17l3 1a104.544 104.544 0 0 1 4.625 6c2.514 3.648 2.514 3.648 5.375 7 .28 4.139.232 8.29.25 12.438l.063 3.548.015 3.385.028 3.123L130 56l-3 2c-.474 1.929-.474 1.929-.432 4.174l-.06 2.609-.02 2.819-.054 2.883c-.054 3.047-.088 6.093-.121 9.14-.034 2.063-.068 4.125-.104 6.188-.085 5.062-.152 10.124-.209 15.187-3.976 1.325-6.046.227-10-1l-2.875-.563C111 99 111 99 110 98c-.118-1.983-.167-3.97-.19-5.957l-.05-3.863-.02-2.077c-.021-2.139-.048-4.278-.077-6.416-.06-4.542-.112-9.083-.163-13.624-.06-5.258-.121-10.515-.192-15.773-.027-2.11-.047-4.22-.068-6.331l-.05-3.873-.039-3.423c.027-2.637.027-2.637-1.151-4.663l-1 65-5 1c-1.205-2.41-1.108-3.88-1.082-6.57l.02-2.872.035-3.113.037-6.488c.025-3.42.053-6.838.086-10.257.03-3.293.048-6.586.064-9.88l.04-3.1.011-2.891.023-2.54c-.138-2.687-.138-2.687-2.234-6.289v52l-5 1c-1.809-1.809-1.231-4.587-1.304-7.03l-.117-3.915c-.126-5.162-.216-10.324-.283-15.487-.051-3.917-.125-7.83-.256-11.746a426.49 426.49 0 0 1-.217-11.363c-.02-1.439-.06-2.877-.122-4.315-.462-11.219-.462-11.219 3.894-15.982 2.943-2.378 6.127-4.278 9.405-6.162l4.5-3.125C113 16 113 16 115.031 16.32ZM117 27v70h1V27h-1Z"/><path fill="#F6B81F" d="M132 53c4.052.761 7.705 1.9 11.563 3.375l3.378 1.273c2.792 1.234 4.907 2.195 7.059 4.352.39 2.156.39 2.156.25 4.5l-.11 2.344L154 71v39c-3.48-.974-6.96-1.955-10.438-2.938l-3.01-.841-2.86-.81-2.65-.747C133 104 133 104 132 103a75.897 75.897 0 0 1-.114-4.703v-3.034l.016-3.298.005-3.359c.005-3.556.018-7.112.03-10.668.006-2.405.01-4.81.014-7.213.011-5.909.028-11.817.049-17.725Z"/><path fill="#0F2E51" d="M468 134v5c8.062 1.743 14.634.458 22-3l1 4h8c1.671-.31 3.339-.64 5-1l2 3 3-1.313c3.953-1.697 7.963-3.2 12-4.687l1 4 1.75-.5c4.637-1.03 7.901-.013 12.25 1.5h2v-2l3-1c2.18 5.33 2.18 5.33 1.375 8.313C541 148 541 148 539.125 148.813c-2.323.204-3.893-.185-6.125-.813h-4l-2-1-2.938 1C521 149 521 149 518 148c-2.811.422-5.299 1.1-8 2a199.514 199.514 0 0 1-4.828-.75c-3.57-.41-7.133-.215-10.719-.09C492 149 492 149 489 147l-3 2c-1.673-.3-3.34-.636-5-1l-1.938.5c-2.84.689-5.204-.013-8.062-.5l-3 1-3 .438c-3.167.39-3.167.39-6 2.562-3 .375-3 .375-6 0-1.938-1.75-1.938-1.75-3-4 .64-5.153 4.413-8.531 8-12 3.616-2.34 5.874-3.746 10-2Zm-5 2-3 4 4-2-1-2Zm24 6 1 2Zm-31 1-1 5 3 1 2-2-1-2h-2l-1-2Zm53 1-1 2 4-1-3-1Z"/><path fill="#F2BA23" d="m679.938 93.813 2.826-.038 2.7-.005 2.489-.013C690 94 690 94 692 96l2-2c2.683-.146 5.26-.186 7.938-.125l2.208.027c1.952.025 3.903.061 5.854.098h3v7l-9 1v1c4.538 1.816 4.538 1.816 9 1v7h-2l-1 2h-6c4.538 1.816 4.538 1.816 9 1v6c-3.74 1.247-7.232 1.146-11.125 1.125l-2.246.012c-5.502-.01-5.502-.01-6.629-1.137a73.608 73.608 0 0 1-.316-4.473l-.127-2.724-.12-2.865-.13-2.877c-.107-2.354-.209-4.707-.307-7.061l-7 3-.184 3.684-.254 4.754-.119 2.431c-.33 6.018-.33 6.018-1.443 7.131-3 .125-3 .125-6 0-2.12-2.12-1.418-6.62-1.563-9.563l-.13-2.443A1762.98 1762.98 0 0 1 675 103h-2v-2h-3v5h-1a920.276 920.276 0 0 1-.063-5.438l-.035-3.058c.22-5.64 6.628-3.688 11.035-3.692ZM701 101l1 3Z"/><path fill="#11365D" d="m653 135 1 4c3.287.8 4.71 1.097 8 0v4l1.75-2.438C666 138 666 138 668.063 137c1.937 0 1.937 0 3.687 1.313C673 140 673 140 673 142l5-5c3 1 3 1 4 2l2.875-2.5c2.875-2.5 2.875-2.5 5.125-2.5l-1 6 5-4 2 4 4-1 1 3 2.375-2c2.625-2 2.625-2 4.625-2l1 8c-1.625 1.563-1.625 1.563-4 3-2.938-.375-2.938-.375-6-1-2.638.394-2.638.394-5 1-15 0-15 0-17.5-.25-2.664-.027-2.664-.027-4.188 2.25L671 153h-2l-1-2-2-1-2-1-1.375 2-1.625 2h-2v-4a247.613 247.613 0 0 0-4.313-.625l-2.425-.352c-2.55-.238-2.55-.238-5.262 1.977-2.41.23-2.41.23-5.063.188l-2.66-.02C637 150 637 150 635 149v-3c3.153-.7 5.727-1 9-1l-6-3v2l-5 1c0-3 0-3 1-6h5v-2c4.468-2.578 9.022-3.723 14-2Zm33 7v3Z"/><path fill="#10304B" d="M117 18h3a76.114 76.114 0 0 1 4.625 5.938l2.414 3.34L129 30l1 1c.28 4.139.232 8.29.25 12.438l.063 3.548.015 3.385.028 3.123L130 56l-3 2c-.474 1.929-.474 1.929-.432 4.174l-.06 2.609-.02 2.819-.054 2.883c-.054 3.047-.088 6.093-.121 9.14-.034 2.063-.068 4.125-.104 6.188-.085 5.062-.152 10.124-.209 15.187-3 1-3 1-5.625.25C118 100 118 100 117 97c-.09-2.54-.126-5.053-.114-7.593v-2.336c0-2.548.009-5.097.016-7.645l.005-5.301c.003-4.65.013-9.302.024-13.952.01-4.746.015-9.492.02-14.237.01-9.312.028-18.624.049-27.936Z"/><path fill="#133356" d="m203 133 2 2c-.375 2.063-.375 2.063-1 4v1l1.934-.254 2.504-.309 2.496-.316L213 139l1 1 2-3c2.375-.625 2.375-.625 5-1 1.335-.325 2.67-.655 4-1l-1 6c4.393-1.012 4.393-1.012 7.375-4.125L232 135l4 1-2 5 2-1 1-3c1.938.375 1.938.375 4 1l1 2h9c1.671-.31 3.339-.64 5-1v2h2l.313 1.938L259 145l3 1-2 4h-2v-3h-2v4l-1.875.375c-2.316.497-2.316.497-4.125 2.625h-3l.5-1.875c.576-2.086.576-2.086.5-4.125l-3.313.563C241 149 241 149 238 148l-3 1c-1.665.093-3.333.13-5 .125l-2.625.008C225 149 225 149 222 148l-1.688.5c-2.406.52-3.899.358-6.312 0-3.058-.45-5.011-.271-8 .5l-3.188-.5c-4.462-.585-8.388-.152-12.812.5-1.063-1.813-1.063-1.813-2-4l1-3c-.875-2.167-.875-2.167-2-4 5.154-4.565 9.177-5.455 16-5Zm-4 4 1 2 1-2h-2Zm1 4 2 2v-2h-2Zm31 2 1 2Zm-38 1 1 2 3-2h-4Zm27 0 1 2Z"/><path fill="#F3BD29" d="M628.848 93.902 635 94l5 11 5-11c6.152-.098 6.152-.098 8 0 1 1 1 1 1.438 4.5L655 102l2 1c1.37 3.563 1.142 7.235 1 11l-1 1v5c-1 1-1 1-4.063 1.063L650 121l-.938-3.313A169.836 169.836 0 0 0 647 111l.313 2.188C647 116 647 116 644.813 118.874 642 121 642 121 639.468 120.949 637 120 637 120 635.637 117.715l-.95-2.778-.988-2.785L633 110l-.402 2.152-.535 2.785-.528 2.778C631 120 631 120 630 121c-2 .04-4 .043-6 0l-1-4h-2a280.282 280.282 0 0 1-.125-4.313l-.07-2.425C621 108 621 108 623 105l1 3 .402-2.809.535-3.629.528-3.62c.709-3.898.709-3.898 3.383-4.04ZM644 115l1 2Z"/><path fill="#12355A" d="m585 134 1 5h3l2.375.5c2.622.5 4.963.57 7.625.5h3l3.313-.625C609 139 609 139 612 140.063c3.93 1.228 6.178.26 10-1.063h2l1.938-2c2.062-2 2.062-2 5.062-2l1 4h-2c-.934 3.01-1.044 3.867 0 7-1.188 1.563-1.188 1.563-3 3a87.451 87.451 0 0 1-5-1c-2.335.322-4.668.655-7 1l-3-1h-7l-1 1c-1.643.099-3.291.13-4.938.125l-2.714.008C594 149 594 149 592 148c-2.258.174-4.47.514-6.71.844-2.35.16-4.055-.15-6.29-.844l-1 2c-4.47 4-4.47 4-8 4 .313-1.938.313-1.938 1-4l3-1-6-3c-.438-2.125-.438-2.125 0-5 4.175-4.95 10.357-9.555 17-7Zm-7 4-3 2v2l-3 1 1 2 8-6-3-1Zm44 3 1 3Z"/><path fill="#F0BA2C" d="M274 94c6.337-.52 6.337-.52 9.328 1.828l1.922 2.422 1.953 2.39A675.322 675.322 0 0 1 292 107c.09-1.282.09-1.282.184-2.59l.253-3.347.247-3.34C293 95 293 95 294 94c3-.125 3-.125 6 0 1.745 1.745 1.13 4.161 1.133 6.531l.004 3.395-.012 3.574.012 3.574-.004 3.395-.004 3.138C301 120 301 120 300 121c-3.258.402-3.258.402-7 0-2.617-2.371-2.617-2.371-4.875-5.438l-2.305-3.058L284 110l-1-1-.184 2.371-.253 3.067-.247 3.058C282 120 282 120 281 121c-3 .125-3 .125-6 0-1-1-1-1-1.114-3.5l.016-3.285.01-3.545.026-3.733.013-3.744c.012-3.064.028-6.129.049-9.193Z"/><path fill="#F1BC33" d="m114 16 3 1c1.568 3.626 1.092 7.735 1.022 11.614l-.03 2.307c-.032 2.511-.073 5.022-.113 7.532l-.072 5.23c-.062 4.583-.132 9.166-.202 13.75-.07 4.678-.135 9.357-.2 14.036-.13 9.177-.265 18.354-.405 27.531-2.375.625-2.375.625-5 1-2.73-2.73-2.268-4.249-2.303-8.07l-.05-3.863-.026-4.192a3018.294 3018.294 0 0 1-.164-15.564c-.051-6.02-.117-12.04-.188-18.06-.023-2.106-.039-4.212-.055-6.318l-.04-3.863-.03-3.413c.034-2.632.034-2.632-1.144-4.657l-1 65-5 1c-1.354-2.709-1.065-5.01-1-8 2 2 2 2 2 5h2V28c5 2 5 2 6.298 4.952 1.075 4.887.97 9.83.932 14.81v3.112c-.004 2.168-.012 4.335-.024 6.503-.018 3.282-.02 6.565-.02 9.848l-.018 6.35-.003 2.927c-.047 6.871-.51 13.659-1.165 20.498h3V16Z"/><path fill="#EFBC3A" d="M721.125 93.75c6.868.068 11.019.694 16.25 5.375 2.212 3.913 2.966 7.383 2.625 11.875-1.99 3.98-4.204 6.673-8 9-3.534 1.178-6.403 1.133-10.125 1.125l-3.82.008C715 121 715 121 714 120c-.1-1.842-.13-3.687-.133-5.531l-.004-3.395.012-3.574-.012-3.574.004-3.395.004-3.138c.252-4.676 3.196-3.588 7.254-3.643ZM724 101a430.695 430.695 0 0 0-.563 4.313l-.316 2.425c-.269 2.43-.269 2.43.879 5.262l-2 1c3.519.32 5.42.372 8.438-1.563 1.896-2.463 1.896-2.463 1.5-6.062-.613-3.63-.613-3.63-3.938-5.375h-4Zm-2 2 1 3Z"/><path fill="#0C2F58" d="m404 135 1 3 1.688-1.563C409 135 409 135 411.75 135.313L414 136v4c8.382 1.007 8.382 1.007 16.09-1.371A255.36 255.36 0 0 0 434 134c2.75-.063 2.75-.063 5 1l2 3 2 1c.73 2.314 1.401 4.648 2 7-1.625 1.563-1.625 1.563-4 3-3-.375-3-.375-6-1l-2 .5c-2.808.702-5.177-.009-8-.5l-2 1-3-2-2.938 1.063L414 149c-2.375-1.375-2.375-1.375-4-3l-1.188 1.5c-2.404 1.99-3.754 1.724-6.812 1.5h-4a69.17 69.17 0 0 1-4-1v-4l-2-2c-.125-2.625-.125-2.625 0-5 7.286-3.571 7.286-3.571 12-2Zm-9 5 1 3 3-4c-2.075-.15-2.075-.15-4 1Zm39-1 4 3v-3h-4Zm-26 1 1 2Z"/><path fill="#F0B830" d="M478.313 95.188c3.515 2.37 5.793 5.025 7.687 8.812.58 8.843.58 8.843-3 13-5.507 4.158-10.179 4.925-17 4-4.698-1.653-7.39-3.748-10-8-1.169-4.208-1.154-6.495.125-10.688 4.841-8.553 13.304-10.31 22.188-7.124Zm-13.25 6.874c-1.677 3.058-1.428 5.529-1.063 8.938 1.44 2.16 2.519 2.792 4.875 3.813 2.885.254 4.58-.474 7.125-1.813 2.361-2.895 2.361-2.895 1.813-6.563-.461-3.695-.461-3.695-3.813-5.437-4.645-.449-4.645-.449-8.938 1.063Z"/><path fill="#EDBA39" d="M344.563 93.75c5.606.067 9.482.595 14.437 3.25 4.034 4.883 6.364 9.626 6 16l-2-1-1 2.25c-2.77 3.81-5.475 5.467-10 6.75-4.36.363-8.641.39-13 0-1.745-1.745-1.13-4.161-1.133-6.531l-.004-3.395.012-3.574-.012-3.574.004-3.395.004-3.138c.243-4.492 2.741-3.584 6.692-3.643ZM346 101v13c5.49.493 5.49.493 7.875-1.063 1.768-3.044 1.493-5.5 1.125-8.937-.98-2.064-.98-2.064-3-3h-6Z"/><path fill="#16375C" d="m349 135 1 2 1.688-1.063c2.85-1.155 4.397-.747 7.312.063l1 4c1.585-.284 3.168-.578 4.75-.875l2.672-.492c2.447-.601 4.384-1.413 6.578-2.633l2 4 3.25-.625c3.75-.375 3.75-.375 6.125.25 2.233 1.89 2.326 3.535 2.625 6.375l-5 3-3-2-2 2c-2.438.125-2.438.125-5 0h-3l-2.438-.563c-2.48-.6-2.48-.6-4.562.063-2.586.646-4.426.094-7-.5-3.031-.1-3.031-.1-6.063.625L347 149l-2-2-2 2c-2.063-.188-2.063-.188-4-1l-1-3 6-6-1.813 1C340 141 340 141 337 141l1-5c4.063-1.606 6.785-2.445 11-1Zm3 6 1 2Zm13 1 1 2 1-2h-2Zm6 0 1 2Z"/><path fill="#F0BA26" d="m540.75 93.813 3.172-.043c4.05.303 6.922 1.19 9.953 3.918 1.664 3.42 1.032 5.684.125 9.312l-3 4 6 8-1 2c-3.125.438-3.125.438-7 0-2.387-2.066-4.2-4.416-6-7l-2 7c-2 .043-4 .04-6 0-1.745-1.745-1.13-4.161-1.133-6.531l-.004-3.395.012-3.574-.012-3.574.004-3.395.004-3.138c.247-4.57 2.892-3.556 6.879-3.58ZM542 100v5l5-1-1-3c-1.947.842-1.947.842-3 2l-1-3Z"/><path fill="#F0B62F" d="m372.727 93.863 2.273.012 2.273-.012c5.6.01 5.6.01 6.727 1.137.146 3.366.072 5.784-1 9l1 1c.146 3.366.072 5.784-1 9l1 1c.04 2 .043 4 0 6-2.813.027-5.625.047-8.438.063l-2.431.025c-2.044.009-4.088-.036-6.131-.088-1.745-1.745-1.13-4.161-1.133-6.531l-.004-3.395.012-3.574-.012-3.574.004-3.395.004-3.138c.249-4.607 2.847-3.522 6.856-3.53Z"/><path fill="#EBBA38" d="M195 93.875C198 94 198 94 199 95c.156 1.34.25 2.688.316 4.035l.127 2.451.12 2.576.13 2.588c.107 2.117.207 4.233.307 6.35h6c.09-1.932.09-1.932.184-3.902l.254-5.035.119-2.577.127-2.45.11-2.27C207 95 207 95 208 94c3-.125 3-.125 6 0 2.306 2.306 1.327 7.657 1.375 10.75l.113 2.75c.062 4.678.07 6.783-2.886 10.578-4.712 3.48-8.839 3.734-14.602 2.922-3.126-1.672-5.393-3.786-7-7a66.846 66.846 0 0 1-.133-4.316l-.004-2.565.012-2.681-.012-2.694.004-2.56.004-2.358c.222-3.141.931-2.818 4.129-2.951Z"/><path fill="#ECBA3B" d="m519.727 93.863 2.273.012 2.273-.012c5.6.01 5.6.01 6.727 1.137.04 2 .043 4 0 6l-7 1v1l7 2v8h-7l7 2c.043 1.666.04 3.334 0 5-1.821 1.821-4.307 1.132-6.727 1.137l-2.273-.012-2.273.012c-5.6-.01-5.6-.01-6.727-1.137-.1-1.842-.13-3.687-.133-5.531l-.004-3.395.012-3.574-.012-3.574.004-3.395.004-3.138c.249-4.607 2.847-3.522 6.856-3.53ZM521 101l1 3Zm0 10 1 3Z"/><path fill="#F7BC1D" d="m422.727 93.863 2.273.012 2.273-.012c5.6.01 5.6.01 6.727 1.137.04 2 .043 4 0 6h-10v3l1.934-.035 2.503-.028 2.497-.035C433 104 433 104 434 105c.161 3.065-.018 5.055-1 8l-3.938-.063A59.19 59.19 0 0 0 425 113l-1 1 1.934-.035 2.503-.028 2.497-.035C433 114 433 114 434 115c.125 2.5.125 2.5 0 5-1.821 1.821-4.307 1.132-6.727 1.137l-2.273-.012-2.273.012c-5.6-.01-5.6-.01-6.727-1.137-.1-1.842-.13-3.687-.133-5.531l-.004-3.395.012-3.574-.012-3.574.004-3.395.004-3.138c.249-4.607 2.847-3.522 6.856-3.53Z"/><path fill="#F6BA1E" d="M305 94c4.177-.03 4.177-.03 8.438-.063l2.661-.027c1.967-.007 3.935.04 5.901.09 1 1 1 1 1.063 3.563L323 100l-3.313.875c-3.727.944-3.727.944-6.687 3.125l1.934-.035 2.503-.028 2.497-.035C322 104 322 104 323 105c.294 3.722.148 4.778-2 8h-4v-2h-2l-1 2-1 1 1.934-.035 2.503-.028 2.497-.035C322 114 322 114 323 115c.125 2.5.125 2.5 0 5-1 1-1 1-4.816 1.098a704.974 704.974 0 0 1-4.747-.035L305 121V94Z"/><path fill="#123355" d="M287.313 133.125C289 134 289 134 290 137c-.938 2.188-.938 2.188-2 4l2-1 1-3 4 1v2h2l3 .188 3-.188 2-3a75.68 75.68 0 0 1 5-1c2.234-.99 2.234-.99 4-2 .652 1.766.652 1.766 1 4-.996 1.922-.996 1.922-2.438 3.75l-1.433 1.86L310 145l3-1-1 4c-4.022.92-7.849 1.645-11.875.438-2.334-.607-2.334-.607-5.563.062-3.562.5-3.562.5-6.187-.188L286 148a1049.33 1049.33 0 0 0-5 4c-3.253.455-5.082.533-7.938-1.125C272 149 272 149 271.938 146.25c1.834-5.61 5.266-9.1 10.188-12.25 2.875-1 2.875-1 5.188-.875ZM282 138l-1 2h3v-2h-2Zm-4 5-1 5 3 1c3.221-1.73 3.221-1.73 6-4v-2l-3 1v2c-1.938-.375-1.938-.375-4-1l-1-2Zm27 0-1 2h2l-1-2Z"/><path fill="#F1BB2D" d="M386 94h7l6 13c2.808-1.404 2.933-3.031 4-5.938 1.786-4.848 1.786-4.848 4-7.062 3-.313 3-.313 6 0 2 3 2 3 1.813 5-.813 2-.813 2-2.252 3.39-1.679 1.731-2.424 3.154-3.35 5.368l-.914 2.144-.922 2.223c-3.27 7.77-3.27 7.77-4.375 8.875-2.875.375-2.875.375-6 0-2.93-4.006-4.695-8.703-6.625-13.25-1.69-4.708-1.69-4.708-4.375-8.75a99.984 99.984 0 0 1 0-5Z"/><path fill="#F3BA20" d="m226.25 93.75 3.453-.078c3.624.36 5.417 1.142 8.297 3.328 2 3 2 3 1.938 6.438-.938 3.562-.938 3.562-3.125 6-3.225 1.79-5.181 1.9-8.813 1.562l.035 1.934.028 2.504.035 2.496C228 120 228 120 227 121c-2.333.04-4.667.042-7 0-.967-5.661-1.151-11.138-1.125-16.875l-.012-2.625.004-2.492.004-2.261c.303-4.092 4.072-2.953 7.379-2.997ZM227 101v4h4l1-3-5-1Z"/><path fill="#F1BB2A" d="M490 94a381.95 381.95 0 0 1 6.188-.188l3.48-.105c3.665.322 5.429 1.08 8.332 3.293 2 3 2 3 1.938 6.438-1.121 4.258-2.193 5.35-5.938 7.562-2.813.75-2.813.75-5 1l-.438 3.938c-.437 3.937-.437 3.937-1.562 5.062-2.333.04-4.667.042-7 0a3592.8 3592.8 0 0 1-.563-12.375l-.17-3.563-.146-3.398-.143-3.142C489 96 489 96 490 94Zm7 7v4h4l1-3-2-1v3h-2l-1-3Z"/><path fill="#F6BC20" d="M574 94c2.277 1.027 2.277 1.027 4 2-.25 1.875-.25 1.875-1 4-2.276 1.441-4.433 2.144-7 3l1.715 1.059 2.222 1.379 2.215 1.37C578 108 578 108 579 109c.438 3.25.438 3.25 0 7-2.628 3.168-4.188 4.666-8.227 5.41-4.732.182-7.93-.435-11.773-3.41.964-2.411 1.688-3.774 3.813-5.313 2.729-.857 4.464-.443 7.187.313-1.282-2.563-2.428-2.824-5-4-3.889-1.778-3.889-1.778-5-4-.525-3.934-.307-5.545 1.938-8.875C565.976 93.322 569.21 93.186 574 94Zm-6 7 1 2Z"/><path fill="#0E2D4A" d="M81 51v6l-8 4 1 1c.04 2 .043 4 0 6l7-1c.5 2.188.5 2.188 0 5-2.48 2.013-5.176 3.519-8 5h1v6l1.813-.5C78 82 78 82 81 82c.375 2.25.375 2.25 0 5-3.172 2.794-5.136 3.936-9.375 4.25L69 91c0-4 0-4 1-5l-2-1 .563-3.125c.412-3.655.183-6.31-.563-9.875V56c1.6-.84 3.205-1.672 4.813-2.5l2.707-1.406C78 51 78 51 81 51Z"/><path fill="#EBB937" d="M247 93.875C250 94 250 94 251 95a62.92 62.92 0 0 1 .098 4.254l-.01 2.588-.025 2.72-.014 2.733c-.012 2.235-.028 4.47-.049 6.705l3.938-.063A59.19 59.19 0 0 1 259 114c1 1 1 1 1.125 3.5C260 120 260 120 259 121c-2.511.1-4.989.139-7.5.125l-2.129.012c-5.244-.01-5.244-.01-6.371-1.137-.1-1.842-.13-3.687-.133-5.531l-.004-3.395.012-3.574-.012-3.574.004-3.395.004-3.138c.193-3.573.488-3.366 4.129-3.518Z"/><path fill="#F4B922" d="M594 94c2.333-.042 4.667-.04 7 0 1.514 1.514 1.213 2.925 1.316 5.035l.127 2.451.12 2.576.13 2.588c.107 2.117.207 4.233.307 6.35l7 1c.934 3.01 1.044 3.867 0 7-2.48.027-4.958.047-7.438.063l-2.142.025c-1.807.009-3.614-.036-5.42-.088-1-1-1-1-1.114-3.5l.016-3.285.01-3.545.025-3.733.014-3.744c.012-3.064.028-6.129.049-9.193Z"/><path fill="#EFB92D" d="M442 93.875C445 94 445 94 446 95c.156 1.34.25 2.688.316 4.035l.127 2.451.12 2.576.13 2.588c.107 2.117.207 4.233.307 6.35l7 1c.043 2 .04 4 0 6-1 1-1 1-4.125 1.133l-3.875-.008-3.875.008C439 121 439 121 438 120c-.1-1.842-.13-3.687-.133-5.531l-.004-3.395.012-3.574-.012-3.574.004-3.395.004-3.138c.193-3.573.488-3.366 4.129-3.518Z"/><path fill="#082E52" d="m119 29 3 2a530 530 0 0 0 5-1c3.33 3.33 2.41 7.663 2.438 12.188l.1 2.83c.035 4.659-.192 8.175-2.753 12.158L124 60h-5V29Z"/><path fill="#0E2E4F" d="m136 134 4 1c-1 7.429-1 7.429-2 11l2.875-.125C144 146 144 146 146 148l-2.438 1.875c-2.6 1.867-2.6 1.867-3.562 4.125l4 2c-2.395.816-4.79 1.628-7.188 2.438l-2.04.697c-5.51 1.854-10.274 3.005-16.084 2.928l-2.676-.028L114 162c3.718-4.214 7.773-6.771 12.621-9.582 4.977-2.933 4.977-2.933 8.379-7.418.228-1.87.41-3.747.563-5.625l.253-3.04L136 134Z"/><path fill="#0E2C4C" d="M653 135a88.406 88.406 0 0 1 1 5l-1 1 1.438 1.25c1.725 1.932 2.128 3.232 2.562 5.75l-3.313-.125c-3.776-.196-3.776-.196-6.687 2.125-2.41.23-2.41.23-5.063.188l-2.66-.02C637 150 637 150 635 149v-3c3.153-.7 5.727-1 9-1l-6-3v2l-5 1c0-3 0-3 1-6h5v-2c4.468-2.578 9.022-3.723 14-2Z"/><path fill="#F6B91D" d="M716 95c12 0 12 0 16 2l-1 2c-2.323.393-4.618.507-6.969.656L722 100l-1 2 3-1v12l7 2v4h-15V95Zm6 8 1 3Z"/><path fill="#F2C022" d="M616.063 93.938 619 94c1.867 3.177 2.247 5.502 2.23 9.168l-.005 2.955-.038 3.064-.001 3.1c-.046 7.573-.046 7.573-1.186 8.713-3.5.125-3.5.125-7 0-1.745-1.745-1.13-4.161-1.133-6.531l-.004-3.395.012-3.574-.012-3.574.004-3.395.004-3.138c.195-3.61.502-3.38 4.192-3.456Z"/><path fill="#F3BA23" d="M132 53c4.21.842 7.413 1.891 11.313 3.563l3.238 1.378L149 59c-3 1-3 1-6 1l3 6h-5v3h2l1 7-3 1-2-3-2 1-4 1-1-23Z"/><path fill="#F0BA2B" d="M660 94c2.333-.042 4.667-.04 7 0 1.745 1.745 1.13 4.161 1.133 6.531l.004 3.395-.012 3.574.012 3.574-.004 3.395-.004 3.138C668 120 668 120 667 121c-3 .125-3 .125-6 0-1-1-1-1-1.114-3.5l.016-3.285.01-3.545.025-3.733.014-3.744c.012-3.064.028-6.129.049-9.193Z"/><path fill="#F2BB2B" d="M266 93.875C269 94 269 94 270 95c.1 1.842.13 3.687.133 5.531l.004 3.395-.012 3.574.012 3.574-.004 3.395-.004 3.138C270 120 270 120 269 121c-3 .125-3 .125-6 0-1.745-1.745-1.13-4.161-1.133-6.531l-.004-3.395.012-3.574-.012-3.574.004-3.395.004-3.138c.193-3.573.488-3.366 4.129-3.518Z"/><path fill="#103255" d="M468 134v5h4l-1 3c-2.063.688-2.063.688-4 1l-.063 2.25c-1.164 3.417-2.855 4.424-6.027 6.02-2.842 1.087-4.92 1.274-7.91.73-1.938-1.75-1.938-1.75-3-4 .64-5.153 4.413-8.531 8-12 3.616-2.34 5.874-3.746 10-2Zm-5 2-3 4 4-2-1-2Zm-7 7-1 5 3 1 2-2-1-2h-2l-1-2Z"/><path fill="#F4B72B" d="M133 80h1l1 8 1-3c3 1 3 1 4 2l1-2 2 2c-.063 3.438-.063 3.438-1 7a113.158 113.158 0 0 1-5 3c-.418 2.627-.418 2.627 0 5l4 1 1-3 2 1v4h10v5c-3.48-.974-6.96-1.955-10.438-2.938l-3.01-.841-2.86-.81-2.65-.747C133 104 133 104 132 103a58.389 58.389 0 0 1-.133-4.113l-.004-2.533.012-2.666-.012-2.631.004-2.545.004-2.33C132 84.004 132.4 82.093 133 80Z"/><path fill="#F8BB1C" d="M339 95h3v2l9-1 1 3h-6v16h4l-1 4h-10V95Z"/><path fill="#EEB832" d="m553 98 2 2c-.28 5.037-.89 6.854-4 11l6 8-1 2c-3.063.5-3.063.5-7 0-2.72-2.382-4.817-5.132-7-8l-2-2c.023-2.164.023-2.164.375-4.625l.336-2.477L541 102l1 3 4-1-1-1h-2v-4l4 1a88.406 88.406 0 0 1 1 5l-1 1c1.946.59 1.946.59 4 1 1.497-1.497 1.332-2.988 1.563-5.063L553 98Z"/><path fill="#8E7F2D" d="m114 16 3 1c1.568 3.626 1.092 7.735 1.022 11.614l-.03 2.307c-.032 2.511-.073 5.022-.113 7.532l-.072 5.23c-.062 4.583-.132 9.166-.202 13.75-.07 4.678-.135 9.357-.2 14.036-.13 9.177-.265 18.354-.405 27.531l-2 1-1-84Z"/><path fill="#112A4F" d="m203 133 2 2c-.185 2.866-.792 3.812-2.938 5.75C200 142 200 142 198 142l2 4h-3v-2h-4l2 1v4h-5c-1.063-1.813-1.063-1.813-2-4l1-3c-.875-2.167-.875-2.167-2-4 5.154-4.565 9.177-5.455 16-5Zm-4 4 1 2 1-2h-2Z"/><path fill="#F6BC1C" d="M295 95h4v24h-8l-.313-1.75c-.785-2.57-2.064-4.134-3.687-6.25v-2h-2l1-4 4 2v3c2.07-.512 2.07-.512 4-2 .707-3.11.707-3.11.75-6.625l.172-3.602L295 95Z"/><path fill="#DEB645" d="m102 23 2 1-4 2 1 3-1 1h-5v65l4 1a88.406 88.406 0 0 1-5 1c-1.813-1.813-1.203-4.616-1.256-7.061l-.088-3.935c-.09-5.18-.158-10.36-.204-15.54a762.328 762.328 0 0 0-.186-11.793 573.03 573.03 0 0 1-.159-11.402 198.28 198.28 0 0 0-.09-4.337c-.34-11.338-.34-11.338 3.049-15.421 2.239-1.756 4.41-3.206 6.934-4.511Z"/><path fill="#112E50" d="m585 134 1 5h3l-1 3c-2.944 1.178-3.9 1.033-7 0l-2 2h-3v3l-1.063 2.063L574 151l1 2-5 1c.313-1.938.313-1.938 1-4l3-1-6-3c-.438-2.125-.438-2.125 0-5 4.175-4.95 10.357-9.555 17-7Zm-7 4-3 2v2l-3 1 1 2 8-6-3-1Z"/><path fill="#0D2E59" d="m562 133 2 5-2 1 2 3-2 2c-.643 2.069-.643 2.069-1 4-8.571 1.429-8.571 1.429-12-1v-5l1.938-.688c2.333-1.144 2.333-1.144 2.625-3.812L554 135c3.228-2.152 4.284-2.2 8-2Z"/><path fill="#F5BA1E" d="m209 95 5 1v21h-5v2h-12v-2h3v-2l3.438-.375L207 114c1.65-3.3 1.383-6.991 1.563-10.625l.13-2.43c.107-1.981.207-3.963.307-5.945Z"/><path fill="#072248" d="m333 134-.563 2.188c-.461 2.969-.123 4.915.563 7.812v3c-1.578.418-3.162.809-4.75 1.188l-2.672.667C323 149 323 149 320.672 147.551L319 146c.313-2.375.313-2.375 1-5l3-2a396.178 396.178 0 0 0 3-5c2.667-1.333 4.167-.671 7 0Z"/><path fill="#183D6C" d="M436.645 134.098C439 135 439 135 441 138l2 1c.73 2.314 1.401 4.648 2 7-1.625 1.563-1.625 1.563-4 3-3-.375-3-.375-6-1l-2.188.563L431 149l-3-2 3-1c.733-2.015.733-2.015 1-4-2.324-.185-2.324-.185-5 2l-1-3a197.052 197.052 0 0 1 3.688-3.563l2.074-2.003C434 134 434 134 436.645 134.098ZM434 139l4 3v-3h-4Z"/><path fill="#133458" d="m373 136 2 1 1 3 3.25-.625c3.75-.375 3.75-.375 6.125.25 2.233 1.89 2.326 3.535 2.625 6.375l-5 3-3-2-2 2c-2.625.125-2.625.125-5 0-1.075-2.652-2.095-5.284-3-8h-3v-2a100.644 100.644 0 0 1 6-3Z"/><path fill="#E6B63A" d="m422.727 93.863 2.273.012 2.273-.012c5.6.01 5.6.01 6.727 1.137.04 2 .043 4 0 6h-10l-1 3 1-5c3.478-1.16 5.459-.708 9 0l-1-2c-1.887-.03-1.887-.03-3.813-.063l-2.144-.035c-2.246.015-2.246.015-5.043 1.098l-3-1-1 22h16l-1-3-6-1v-1c2.333-.042 4.667-.04 7 0 1 1 1 1 1.125 3.5C434 120 434 120 433 121c-2.677.1-5.323.139-8 .125l-2.273.012c-5.6-.01-5.6-.01-6.727-1.137-.1-1.842-.13-3.687-.133-5.531l-.004-3.395.012-3.574-.012-3.574.004-3.395.004-3.138c.249-4.607 2.847-3.522 6.856-3.53Z"/><path fill="#E8B330" d="m319 104 4 1c.2 3.716.152 4.772-2 8h-4v-2h-2l-1 2-1 1 1.934-.035 2.503-.028 2.497-.035C322 114 322 114 323 115c.125 2.5.125 2.5 0 5-1 1-1 1-4.816 1.098a762.816 762.816 0 0 1-4.747-.035l-2.443-.014c-1.998-.012-3.996-.03-5.994-.049v-9c2 2 2 2 2.125 4.625L307 119l8-1v-2l-4-1c.256-2.343.593-4.678 1-7l2-1v2h7l-2-5Z"/><path fill="#EFB833" d="M572 105c2.915 1.074 4.778 1.778 7 4 .5 3.313.5 3.313 0 7-2.628 3.168-4.188 4.666-8.227 5.41-4.732.182-7.93-.435-11.773-3.41.919-2.297 1.762-3.79 3.625-5.438 3.824-.905 6.89.865 10.375 2.438 1.552-1.364 1.552-1.364 3-3 .005-2.148.005-2.148-1-4l-3-1v-2Z"/><path fill="#EDBA3B" d="m717.941 93.902 3.621.035 3.63.028L728 94v1h-12v24h15v-4l-2-1h5v-2h4l1-6h1c-.37 6.164-1.702 8.8-6 13-4.113 2.143-7.655 2.24-12.25 2.188l-3.766-.02C715 121 715 121 714 120c-.1-1.842-.13-3.687-.133-5.531l-.004-3.395.012-3.574-.012-3.574.004-3.395.004-3.138c.191-3.544.466-3.371 4.07-3.49Z"/><path fill="#EEB839" d="M694 94h19v7l-9 1v1c4.538 1.816 4.538 1.816 9 1v7h-2l-1 2h-4l-2-7-4-1-1-4 7-3-2-1v-2h-10v-1Zm7 7 1 3Z"/><path fill="#143A62" d="m313 134 2 1c-.53 3.821-1.497 6.062-4 9h2l-1 4c-5.758-1.089-11.392-2.293-17-4l2-4 2.875.188L303 140l2-3a88.406 88.406 0 0 1 5-1l3-2Zm-8 9-1 2h2l-1-2Z"/><path fill="#132D42" d="M89 55c.625 1.813.625 1.813 1 4l-2 3 1 1c.04 2 .043 4 0 6l-6 2v-6l-7 1c-.5-2.188-.5-2.188 0-5 3.589-3.02 8.192-6 13-6Z"/><path fill="#11334B" d="m88 70 2 1-.5 2.375c-.526 2.761-.488 4.81-.313 7.625L89 84c-3 2-3 2-6 2l1-7-7 3c-1-1-1-1-1.063-3.563L76 76c1.953-1.03 3.913-2.05 5.875-3.063l3.305-1.722L88 70Z"/><path fill="#0F315A" d="m661 139 1 3-2 3h4l3.5.625c3.475.372 4.683.29 7.5-1.625l4 5-2.313-.25c-2.831-.053-2.831-.053-4.375 2.25L671 153h-2l-1-2-2-1-2-1-1.375 2-1.625 2h-2v-4l-3-1 1-2-2-1v-3l-2-1 8-2Z"/><path fill="#14315A" d="M628 135h3l1 4h-2c-.934 3.01-1.044 3.867 0 7-1.063 1.563-1.063 1.563-3 3-6.333-.333-6.333-.333-9-3l-2 1-2-1c.75-1.938.75-1.938 2-4 2.125-.75 2.125-.75 4-1v-2h4a181.008 181.008 0 0 0 4-4Zm-6 6 1 3Z"/><path fill="#F7BB1E" d="M631 94.875C634 95 634 95 635 96v5l1 2h-3l-.375 3.938c-.21 2.214-.21 2.214-.625 4.062l-2 1v-2l-4 1c-.09-5.129.069-9.93 1-15 1-1 1-1 4-1.125Z"/><path fill="#EABE33" d="M114 17h1v83c-4-1-4-1-5-2a83.431 83.431 0 0 1-.098-4.91l.01-2.998.025-3.154.014-3.167c.012-2.59.028-5.18.049-7.771h1v21h3V17Z"/><path fill="#EFBC32" d="M574 94c2.277 1.027 2.277 1.027 4 2-.25 1.875-.25 1.875-1 4-2.276 1.441-4.433 2.144-7 3l2 2-5-1v-6l-2 2-3 2-2 3c-.453-3.895-.285-5.577 1.938-8.875C565.976 93.322 569.21 93.186 574 94Zm-6 7 1 2Z"/><path fill="#E7BA44" d="M297 93.875C300 94 300 94 301 95c.1 1.842.13 3.687.133 5.531l.004 3.395-.012 3.574.012 3.574-.004 3.395-.004 3.138C301 120 301 120 300 121c-2.333.04-4.667.042-7 0l-1-2h7V95h-4v13l-5 2-1-5 3 2 .184-2.59.253-3.347.247-3.34c.44-3.796.446-3.687 4.316-3.848Z"/><path fill="#0B2A47" d="m48 77-5 5 2 4-7 3v2l2 1-1 3c-2.85-2.484-4.76-4.437-6.25-7.938.294-3.597.828-4.005 3.438-6.312C43.175 75.277 43.175 75.277 48 77Z"/><path fill="#E4BC46" d="M693 100c2.197 3.939 2.234 7.328 2.125 11.75l-.027 2.113c-.024 1.713-.06 3.425-.098 5.137 4.873-1.351 4.873-1.351 9.625-3.063C707.303 114.88 710.089 114 713 114v6c-3.74 1.247-7.232 1.146-11.125 1.125l-2.246.012c-5.502-.01-5.502-.01-6.629-1.137a69.436 69.436 0 0 1-.098-4.473l.01-2.724.025-2.865.014-2.877c.012-2.354.028-4.707.049-7.061Z"/><path fill="#F5B925" d="M132 53c4.058.655 7.54 1.946 11.313 3.563l3.238 1.378L149 59c-3 1-3 1-6 1l3 6h-5v3h2l1 7-3 1c-1.354-2.709-1.065-5.01-1-8l-3-1 2-2a128.624 128.624 0 0 0-1-6l1-1c-3.254-2.259-3.254-2.259-7-3v-3Z"/><path fill="#0D3255" d="M415 140c1.79-.08 3.583-.14 5.375-.188l3.023-.105L426 140l2 3 4-3v2l2 1h-2l-1 4h-3l-1 2c-3 0-3 0-6-1v-2l-4-2-2 2c-1-3-1-3 0-6Z"/><path fill="#0A2956" d="m462 139 1 3-3 1v2l1.61-1.059 2.14-1.379 2.11-1.37c2.07-1.153 3.827-1.739 6.14-2.192l-1 3c-2.063.688-2.063.688-4 1l-.063 2.25c-1.164 3.417-2.855 4.424-6.027 6.02-2.842 1.087-4.92 1.274-7.91.73-1.938-1.75-1.938-1.75-3-4 .313-2.25.313-2.25 1-4 1.5 1.375 1.5 1.375 3 3v2l5-2v-2h-2c1.37-3.161 1.99-3.993 5-6Z"/><path fill="#2A3E41" d="M66 107c2.48.113 4.958.24 7.438.375.707.03 1.414.062 2.142.094 1.812.104 3.618.31 5.42.531l1 2c3.03.658 3.03.658 6 1v2h8l1-3h2l1 5 6 1v2l-4 1v-2l-1.723-.184A361.63 361.63 0 0 1 86 115v-2l-2.688-.25c-5.944-.823-11.621-2.91-17.312-4.75v-1Z"/><path fill="#F5BB1A" d="M520 105h2l1 2c3.03.658 3.03.658 6 1v1l-9 1v6h9v3h-14v-10l5-1v-3Z"/><path fill="#ECB82C" d="M233 95c2.59.357 3.846.862 5.813 2.625 1.76 3.52 1.253 5.644.187 9.375-2.766 3.082-4.166 3.937-8.313 4.25L228 111l-1 2v-4l7-2-1-3-2-1a249.263 249.263 0 0 1-4-3l5-1 1 3 2-1c.652-2.025.652-2.025 1-4h-3v-2Z"/><path fill="#EBB83A" d="M594 94h7v1h-6v24h9l-1-6 7 1c.934 3.01 1.044 3.867 0 7-2.48.027-4.958.047-7.438.063l-2.142.025c-1.807.009-3.614-.036-5.42-.088-1-1-1-1-1.114-3.5l.016-3.285.01-3.545.025-3.733.014-3.744c.012-3.064.028-6.129.049-9.193Z"/><path fill="#F6BB1F" d="M353 97c4.75.875 4.75.875 7 2 .973 2.837 1.19 5.577 1.25 8.563l.078 2.316c-.408 2.637-1.396 3.367-3.328 5.121v2h-4v-4h2c-.113-1.98-.241-3.959-.375-5.938-.07-1.102-.14-2.204-.21-3.34-.138-.898-.274-1.796-.415-2.722l-2-1v-3Z"/><path fill="#F6BB1C" d="m232 94 1 3h3l-1 5h-2l-1-2-7 1v2l-4 2V95l11-1Z"/><path fill="#E7B13B" d="M653 95h1l.375 3.438L655 102l2 1c1.37 3.563 1.142 7.235 1 11l-1 1v5c-1 1-1 1-4 1.125-3-.125-3-.125-4-1.125-.04-2-.043-4 0-6h2v5h4v-7h-3v-5l-2-1 1-3v2h2V95Z"/><path fill="#F6BB1E" d="m523.125 94.438 3.32.308L529 95v5h-10v2h-2v4h-2V95c2.836-1.418 4.99-.863 8.125-.563Z"/><path fill="#D8AC33" d="M135 134h1c.746 3.544.848 6.464 0 10-5.403 7.02-13.686 12.896-22 16l-3-1 1-2 7-2 1-2c2.063-.625 2.063-.625 4-1v-4l5-1 1-5 3-1c1.23-3.512 1.23-3.512 2-7Z"/><path fill="#DEB859" d="M106 36h1v61l-5 1c-1.354-2.709-1.065-5.01-1-8 2 2 2 2 2 5h2l1-59Z"/><path fill="#D1AD3C" d="m52 104 12 2v2l6 1c-5.027 2.872-9.456 1.853-15 1l1.063 3.75c.893 3.153.946 5.118-.063 8.25a1370.82 1370.82 0 0 1-2-6.75l-1.125-3.797C52 108 52 108 52 104Z"/><path fill="#ECBB35" d="M275 94c3.676-.363 5.389-.488 8.336 1.863l2.039 2.45 2.086 2.425C289 103 289 103 289 106h-3l-1 3h2c1.29 1.531 1.29 1.531 2.625 3.5l1.352 1.969L292 116l-1 2c-1.506-1.787-3.005-3.58-4.5-5.375l-2.531-3.023C282 107 282 107 282 105h2l-1.875-2.813L278 96l-3-1v-1Z"/><path fill="#0D2C4D" d="m203 133 2 2c-.185 2.866-.792 3.812-2.938 5.75C200 142 200 142 198 142l-2-4h-7l-1 2v-3c4.275-4.116 9.281-4.381 15-4Zm-4 4 1 2 1-2h-2Z"/><path fill="#112F4B" d="M89 40v6c-1.412.676-2.83 1.34-4.25 2l-2.39 1.125C80 50 80 50 76 50v-5c1.6-.84 3.205-1.672 4.813-2.5l2.707-1.406C86 40 86 40 89 40Z"/><path fill="#F7BA1F" d="m678 102 1 2h4v15h-5v-17Z"/><path fill="#0D3057" d="M256 139v2h2l.313 1.938L259 145l3 1-2 4h-2v-3h-2v4c-3-1-3-1-5-4-1.045-3.04-1.06-3.82 0-7 2-1 2-1 5-1Z"/><path fill="#1A3653" d="M333 134c-.348 3.246-.97 3.975-3.563 6.125L327 142v2l-5 2-2-2v-3l3-2a396.178 396.178 0 0 0 3-5c2.667-1.333 4.167-.671 7 0Z"/><path fill="#123755" d="M356.75 135.625 359 136l.313 2.375c.463 2.955.463 2.955 3.687 4.625l-2 4-4-1v-2l-3 1-2-2-2 4h-2c3.775-10.697 3.775-10.697 8.75-11.375Z"/><path fill="#F0C13C" d="m222.723 93.902 3.34.035 3.347.028L232 94v1h-11v24h5v-5h1c.381 1.991.713 3.993 1 6-1 1-1 1-4.563 1.063L220 121c-.967-5.661-1.151-11.138-1.125-16.875l-.012-2.625.004-2.492.004-2.261c.218-2.95.88-2.738 3.852-2.845Z"/><path fill="#E4B441" d="M360 99c3.599 4.798 5.344 7.98 5 14l-2-1-1 2.25c-2.768 3.806-5.475 5.476-10 6.75-4.357.314-8.64.24-13 0v-1l15-1v-2h4l-1-3 4-2-1-13Z"/><path fill="#11385B" d="m685 138 1.688.875c2.397 1.166 4.828 2.159 7.312 3.125-.813 2.938-.813 2.938-2 6-3.766 1.255-5.372.37-9-1 .875-6.75.875-6.75 2-9Zm1 4v3Z"/><path fill="#F8BA1C" d="M671 95h18l-1 4c-7.625 1.25-7.625 1.25-11-1v2l-6-1v-4Z"/><path fill="#F4BD19" d="M245 95h4v18l-2-3-1 8h-1V95Z"/><path fill="#E2BD49" d="M305 94c2.813-.027 5.625-.047 8.438-.063l2.431-.025c2.044-.009 4.088.036 6.131.088 1 1 1 1 1.063 3.563L323 100l-3.25.875c-2.844.853-5.185 1.689-7.75 3.125v-5h9v-4c-2.146.113-4.292.241-6.438.375l-3.62.21c-.971.138-1.942.274-2.942.415-1.284 2.569-1.33 4.766-1.563 7.625l-.253 3.04L306 109h-1V94Z"/><path fill="#F5BA1D" d="M733 100c1.938.25 1.938.25 4 1 2 3 2 3 3 5-1.4 5.6-1.4 5.6-5 8l-2 1-2-2 1-2c.045-1.687.039-3.375 0-5.063a96.532 96.532 0 0 1 0-4.937l1-1Z"/><path fill="#143D62" d="M708 138c.977 6.055.977 6.055 1 8l-2 2c-3-1-3-1-6-3-3.64.317-3.64.317-7 1 .125-1.875.125-1.875 1-4 3.063-1.25 3.063-1.25 6-2v2l2.375-2c2.625-2 2.625-2 4.625-2Z"/><path fill="#133961" d="M224 138c-.6 3.356-1.846 5.378-4 8l3 1-2 2c-2.963-.395-5.383-1.598-8-3 1.074-2.915 1.778-4.778 4-7 2.5-.807 4.34-1 7-1Z"/><path fill="#173C61" d="M247 141c1.938.813 1.938.813 4 2 1.714 5.143 1.714 5.143 2 8-1.25 1.813-1.25 1.813-3 3h-3l.5-1.875c.576-2.086.576-2.086.5-4.125-2.781-2.334-2.781-2.334-5.688-1.625L240 147c.375-1.938.375-1.938 1-4l2-1 1 2 3-3Z"/><path fill="#F6BA1D" d="m638 105 3 1v3h3l2 6-4 1v3h-3l-.375-1.688c-.685-2.533-1.616-4.891-2.625-7.312l2-2v-3Z"/><path fill="#F6B822" d="m492 108 5 1c1.507 3.013 1.178 5.683 1 9l-2 2h-5l1-12Z"/><path fill="#18364D" d="m135 120-.688 2.688c-.372 3.945.524 5.11 2.688 8.312v3l-1.355-1.172-1.833-1.578-1.921-1.66c-1.564-1.315-3.19-2.557-4.828-3.778L125 124v-3c6.625-1 6.625-1 10-1Z"/><path fill="#DBB132" d="m141 100 3 1v4h10v5l-21-6v-1h8v-3Z"/><path fill="#132B49" d="m554 135 3 1-1 2 2 1h-2l-1 7 2 1-1 2c-5.875-.875-5.875-.875-7-2a99.984 99.984 0 0 1 0-5l1.938-.688c2.334-1.165 2.334-1.165 2.812-3.937L554 135Z"/><path fill="#F8BB1E" d="M396 105c1.044 3.133.934 3.99 0 7h4v2l4-1-1 6h-7a344.566 344.566 0 0 1-1.5-3.75l-.844-2.11C393 111 393 111 393 107h3v-2Z"/><path fill="#092B52" d="M89 86v6c-2.917 1.984-4.124 1.988-7.75 1.625L78 93l-1-3a562.649 562.649 0 0 1 4.313-2l2.425-1.125C86 86 86 86 89 86Z"/><path fill="#0F2D4D" d="M222 135h3l-1 4-3.25.125c-3.986.521-3.986.521-6.188 3.938L213 146l4 2c-1.813.625-1.813.625-4 1l-3-2c-.125-2.5-.125-2.5 0-5l-1-2c1.938-.563 1.938-.563 4-1l1 1 2-3c2.563-.625 2.563-.625 5-1l1-1Z"/><path fill="#F7BB1B" d="m275 104 1 4 4-2v13h-5v-15Z"/><path fill="#0F3152" d="m373 136 2 1 1 3 3-1v3l-4 1-1 4 4 2h-5c-1.075-2.652-2.095-5.284-3-8h-3v-2a100.644 100.644 0 0 1 6-3Z"/><path fill="#1C3B61" d="m232 135 4 1c-1.929 3.408-3.828 6.741-6 10l-1.813-.5c-2.3-.611-2.3-.611-5.187-.5v-3l3.375-1.25c2.618-1.105 3.46-1.499 5.063-3.938L232 135Z"/><path fill="#143046" d="M115 115c4.056.468 7.466.88 11 3-6.75.125-6.75.125-9-1 1.812 2.062 1.812 2.062 4 4h3v3h-5v-2l-2.59-.367-3.347-.508-3.34-.492L107 120l-1-2h9v-3Z"/><path fill="#092D52" d="M126 108c2.001.326 4.001.66 6 1h3.25c2.75 0 2.75 0 4.75 1-.25 1.875-.25 1.875-1 4-2.063 1.25-2.063 1.25-4 2l-1-3h-7v-2l-2-2 1-1Z"/><path fill="#F8C01A" d="M367 96c11.375 0 11.375 0 15 2v1l-11 1v3l-5 2 1-9Z"/><path fill="#0F3861" d="m481 141 1 2c3.03.658 3.03.658 6 1l1 3c-3 2-3 2-5.563 1.563L481 148l-2 1-1-3h-3l1-4 5 1v-2Z"/><path fill="#0E2847" d="M436.77 134.285 439 135l1 3c-3 2-3 2-5 2l-1 3-3-2-4 3-1-3a197.052 197.052 0 0 1 3.688-3.563l2.074-2.003C434 134 434 134 436.77 134.285Z"/><path fill="#F8BA1D" d="m461 114 16 1c-4 4-4 4-6 4.426l-2-.114-2.094-.105c-2.04-.222-3.956-.557-5.906-1.207v-4Z"/><path fill="#EBBD3F" d="m674.438 93.867 2.71-.004 2.852.012 2.852-.012 2.71.004 2.504.004C690 94 690 94 691 95c.04 2 .043 4 0 6l-6 2-1-4h4v-3h-17l-2 4a99.984 99.984 0 0 1 0-5c1.59-1.59 3.239-1.13 5.438-1.133Z"/><path fill="#0F2B41" d="M87 73c-1 3-1 3-3.063 4.188L82 78v2l-5 2c-1-1-1-1-1.375-3.375C76 76 76 76 78.125 74.187 81.311 72.873 83.587 72.763 87 73Z"/><path fill="#062A46" d="m59 97 6 2v1h-5c.752 3.278.752 3.278 4 5l-5 1-1-2-2.313-.438c-2.948-.617-4.42-1.63-6.687-3.562l9 1 1-4Z"/><path fill="#132E44" d="M147 111c8.974 1.442 16.801 5.238 25 9-2.395.852-3.543 1.192-5.93.188L164.125 119c-3.092-1.69-3.946-2.013-7.625-1.75l-2.5.75-1-3c-3-1.709-3-1.709-6-3v-1Z"/><path fill="#F0AE30" d="M423 110c2.625-.188 2.625-.188 5 0v1l5 1v1h-8l1 5h-8v-4l3-1 2-3Z"/><path fill="#153A60" d="m540 138 2 1c.75 3.438.75 3.438 1 7l-2 2h-3v-2l-3-1 1-4h2v-2l2-1Z"/><path fill="#EFC037" d="M462 96v3l-2 1c-1.54 4.86-2.77 9.358-.563 14.063L461 116l-1 2c-3.643-3.878-4.908-6.654-5-12 1.455-4.594 2.78-7.526 7-10Z"/><path fill="#F4BD2F" d="M114 16v16h-1l-.25-3.375c-.335-3.623-.335-3.623-2.563-5A178.504 178.504 0 0 0 104 22c1.477-1.003 2.957-2.002 4.438-3l2.496-1.688C113 16 113 16 114 16Z"/><path fill="#193243" d="M97 110h2l1 5 6 1v2l-4 1v-2l-1.863-.184-2.45-.254c-.8-.08-1.6-.162-2.425-.246C93 116 93 116 90 115v-2h6l1-3Z"/><path fill="#F8BB1E" d="m695.602 94.805 3.023.07 3.04.055L704 95v2l2 1-2.313-.688L701 97c-1.709 1.375-1.709 1.375-3 3h-2l-2 3c-2-3-2-3-3-6 2-2 2-2 4.602-2.195Z"/><path fill="#082650" d="m505 140 1 2 5-1v2l-3 1-2 3v-3h-2l-1-2h-3v2h2v2l2 1-1 2-3-1 1-2h-2l-2-2v-3c4.625-2.125 4.625-2.125 8-1Z"/><path fill="#193C61" d="m520 138 2 2c2.108-.319 2.108-.319 4-1v2h2l1 3c-2 3-2 3-4.625 3.688L522 148l1-4-3-1v-5Z"/><path fill="#F8BA1F" d="m443 110 2 4 3-1v2h5v4h-9l-1-9Z"/><path fill="#F6BA24" d="M618 106h1c.36 2.311.714 4.624 1.063 6.938l.597 3.902.34 3.16c-1 1-1 1-4.563 1.063L613 121v-4l3-1 2-10Z"/><path fill="#EBB33B" d="M239 100h1c-.236 4.084-.41 6.342-3.188 9.438-3.224 1.79-5.18 1.9-8.812 1.562l-1 2v-4l3.438-.813L234 107l1-3c2.063-1.188 2.063-1.188 4-2v-2Z"/><path fill="#E9BD3A" d="m379 104 5 1c.125 5.75.125 5.75-1 8h-9v-3h6v-2h2v-2h-3v-2Z"/><path fill="#DFB141" d="M525 114a99.984 99.984 0 0 1 5 0c1 1 1 1 1.125 3.5C531 120 531 120 530 121c-2.697.073-5.367.092-8.063.063l-2.298-.014c-1.88-.012-3.76-.03-5.639-.049l1-2h14v-4l-4-1Z"/><path fill="#0A2951" d="m690 134-1 5-4-1a490.71 490.71 0 0 0-.563 4.375l-.316 2.46c-.303 2.214-.303 2.214.879 4.165l-4-1c-.934-3.01-1.044-3.867 0-7 5.46-7 5.46-7 9-7Z"/><path fill="#F7B616" d="M142.188 94.125 144 95l1 3-3 2-1 3-4-1-1-5c3.398-3.034 3.398-3.034 6.188-2.875Z"/><path fill="#102D4A" d="M352 143c2.625.375 2.625.375 5 1v2l5 1-1 2-2.313-.5c-4.12-.767-7.595-.227-11.687.5l-1-2 2-2v2l2-2 2-2Z"/><path fill="#123960" d="M597 140h2l2 2c3.1-.322 3.1-.322 6-1l1 3-2.938.375L602 145l-1 2-6-1 2-6Z"/><path fill="#F1BD3B" d="M404 98h1l1 7 2-2 3 1-4 9c-1-4-1-4 0-6h-6l3-9Z"/><path fill="#0C2B50" d="m520 136 2 1-1 6 2 1v5c-3.875-1.875-3.875-1.875-5-3l-1-3-1-1c.25-1.938.25-1.938 1-4l3-2Z"/><path fill="#FAB91C" d="M546 108h2v4l3 1v4h3v2l-8-1v-10Z"/><path fill="#F8BA1C" d="M537 108h3c1.63 4.122 2.263 6.707 1 11h-5v-3l3-1-1.563-1.25L536 112c.313-2.188.313-2.188 1-4Z"/><path fill="#1B406B" d="M594 140c.934 3.01 1.044 3.867 0 7-2.716-.905-5.348-1.925-8-3l-2 3c.25-2.375.25-2.375 1-5 2.904-2.178 5.451-2.197 9-2Z"/><path fill="#EAB43A" d="m628 110 4 1c-.14 1.48-.288 2.959-.438 4.438-.08.823-.162 1.647-.246 2.496C631 120 631 120 630 121c-2 .04-4 .043-6 0l-1-2h6l-1-9Z"/><path fill="#F9B91B" d="M568 95v11l-7-1 .5-1.875c.576-2.086.576-2.086.5-4.125h3c1.705-1.94 1.705-1.94 3-4Z"/><path fill="#F0BB33" d="m150 60 4 2c0 12.375 0 12.375-1 16v-2l-3-1c-.235-4.82.548-8.463 2-13h-2v-2Z"/><path fill="#1B354C" d="M85 63h4v6l-6 2c-.125-2.875-.125-2.875 0-6l2-2Z"/><path fill="#163A60" d="m472 140 2 4-4 5-6-2c2.578-2.648 4.916-4.944 8-7Z"/><path fill="#0C2F4C" d="m432 143 9 3v3l-2.75-.563c-3.094-.623-3.094-.623-5.438.125L431 149l-3-2 3-1 1-3Z"/><path fill="#1B3E5E" d="m287 133 3 2c-.75 2.938-.75 2.938-2 6-2 1-2 1-4 1l-2-2h2v-2l-2-1 2-2h3v-2Z"/><path fill="#EABE45" d="M64 136h4v4h3a748.858 748.858 0 0 1 4 6c2.1 1.176 2.1 1.176 4 2l1 3c-4.178-1.375-6.624-3.243-9.688-6.375l-2.324-2.336c-1.784-2.054-2.927-3.804-3.988-6.289Z"/><path fill="#F5B428" d="M664 95h3v23c-1.959-3.917-2.593-6.69-3-11l1-1c.213-5.605.213-5.605-1-11Z"/><path fill="#203A4C" d="M97 100h11v2l4 1-1.934.148-2.504.227-2.496.21L103 104l-1 2-5-6Z"/><path fill="#0B2E53" d="m589.188 144 2.812 1v3l-9 1-2-5c3.11-1.555 4.916-1.026 8.188 0Z"/><path fill="#F0B938" d="M713 114v6l-12-1c4.24-4.24 5.995-5 12-5Z"/><path fill="#092D4D" d="m77 84 3 1c-.375 1.938-.375 1.938-1 4-2.957 1.478-5.742 1.06-9 1l2-4h5v-2Z"/><path fill="#223B4D" d="m127 29 3 2c.34 2.522.34 2.522.293 5.664l-.03 3.398c-.024 1.176-.05 2.352-.076 3.563l-.04 3.586c-.036 2.93-.085 5.86-.147 8.789l-4 1 .986-1.695c1.143-2.598 1.258-4.358 1.244-7.184l-.005-2.79-.037-2.894-.002-2.904c0-5.352 0-5.352-1.186-10.533Z"/><path fill="#0C2A4B" d="m411 138 4 2-.063 2.438c-.233 2.496-.233 2.496 1.063 3.562l1-4 3 4c-3 2-3 2-6 3l-2-1 .063-2.75c-.052-2.677-.285-4.72-1.063-7.25Z"/><path fill="#142B44" d="M346 135c-1.255 3.766-2.529 4.264-6 6h-3l1-5c5.75-2.125 5.75-2.125 8-1Z"/><path fill="#3D4735" d="m136 134 4 1c-1.201 8.923-1.201 8.923-2 11l-3 1 1-13Z"/><path fill="#E0B83E" d="M132 53c4.058.655 7.54 1.946 11.313 3.563l3.238 1.378L149 59c-3.224 1.075-4.288.932-7.5.188l-2.344-.52C137 58 137 58 134 56h-2v-3Z"/><path fill="#143B67" d="M489 138h2v2l2.313-.188c2.687.188 2.687.188 4.5 1.5C499 143 499 143 499 146c-2.169-.506-4-1-6-2l-1 2-2-3h4v-2l-5 1-1-3 1-1Z"/><path fill="#E3B145" d="M550 111c2.964 2.808 5.445 5.183 7 9-1 1-1 1-4.438 1.25L549 121l-2-3 7 1v-2h-3l-1-6Z"/><path fill="#0C2842" d="m50 89 3.324.84 4.364 1.097 2.185.553c3.695.928 7.38 1.808 11.127 2.51v1c-2.23-.142-4.459-.289-6.688-.438-1.24-.08-2.482-.162-3.761-.246C54.304 93.76 54.304 93.76 52 93c-1.313-2.063-1.313-2.063-2-4Z"/><path fill="#162E46" d="M81 51v6c-2.647 1.46-3.894 2-7 2v-2l1.938-.375L78 56l1-2-9 2c3.153-3.153 6.512-5 11-5Z"/><path fill="#1B364D" d="m87 47 2 1v5l-6 2v-6c1.875-1.063 1.875-1.063 4-2Z"/><path fill="#072346" d="M586 137v2h3l-1 3c-2.944 1.178-3.9 1.033-7 0l-2 2-3-2a299.491 299.491 0 0 1 3.313-2.5l1.863-1.406C583 137 583 137 586 137Z"/><path fill="#113149" d="M70 47h4c.188 2.375.188 2.375 0 5-3 2-3 2-6 2-.125-2.375-.125-2.375 0-5l2-2Z"/><path fill="#163F68" d="M379 140h2l-1 7c-3.75 1.125-3.75 1.125-6 0l1-5h4v-2Z"/><path fill="#0D213E" d="M275 140h2l-1 5h-2v5l7 1v1c-5.382.359-5.382.359-7.938-1.125-1.62-2.861-.9-4.783-.062-7.875l2-3Z"/><path fill="#F8CF18" d="M132 74h3v2l2 1-2 6 2 1h-2l-1 4c-1.906-3.212-2.223-5.539-2.125-9.25l.055-2.703L132 74Z"/><path fill="#0A2B52" d="m410 142-.938 1.813c-1.164 2.277-1.164 2.277-2.062 5.187-2.375.188-2.375.188-5 0l-2-3c1.29-.672 2.581-1.337 3.875-2l2.18-1.125C408 142 408 142 410 142Z"/><path fill="#12365B" d="m331 139 2 1v7c-5.625 1.125-5.625 1.125-9 0l5-1-.125-2.375C329 141 329 141 331 139Z"/><path fill="#1B426B" d="M622 142v6l-2-1h-3l-3-1c2.023-4.48 3.204-5.439 8-4Z"/><path fill="#204470" d="m407 139 1 3c-3.509 3.096-6.492 4.742-11 6 .313-2.375.313-2.375 1-5 3-2 3-2 5.188-1.625L405 142l2-3Z"/><path fill="#F2B13B" d="M498 99h4l1 7h-7v-6h1v5h4v-3l-1 2h-2v-5Z"/><path fill="#CCB73D" d="M110 76h1v21h4v3c-3.875-.875-3.875-.875-5-2a83.431 83.431 0 0 1-.098-4.91l.01-2.998.025-3.154.014-3.167c.012-2.59.028-5.18.049-7.771Z"/><path fill="#F5BA1D" d="M468 95c6.523-.37 6.523-.37 8.938 1.5L478 98c-3.981 1.327-7.85 1.07-12 1l2-4Z"/><path fill="#C79B37" d="M127 152c-1.415.961-2.832 1.919-4.25 2.875l-2.39 1.617c-4.103 2.622-4.103 2.622-6.36 3.508l-3-1 1-2 7-2 1-2c4.558-2.22 4.558-2.22 7-1Z"/><path fill="#0D274D" d="m668 137 5 2-1 2h-2v2l-1.813-.5c-2.3-.611-2.3-.611-5.187-.5l5-5Z"/><path fill="#0C2E5B" d="m348 135 2 2 4-2c-1.37 3.995-3.257 6.8-6 10v-3l-2-1 2-6Z"/><path fill="#10284C" d="m401 139-.938 1.688c-1.12 2.437-1.622 4.674-2.062 7.312l-3 1c-.813-2.188-.813-2.188-1-5 4.111-5 4.111-5 7-5Z"/><path fill="#1A3E6A" d="m356 140 7 2-2 5-4-1v-2l-3 1 2-5Z"/><path fill="#0A3156" d="m650 135 4 1-1 3c-2.813.688-2.813.688-6 1-1.875-1.438-1.875-1.438-3-3 3.75-1.125 3.75-1.125 6 0v-2Z"/><path fill="#0D243C" d="m399 134 2 1-2 2-3-1 1 4h-2v3l-3-1v-5a135.916 135.916 0 0 1 7-3Z"/><path fill="#AC8D33" d="M98 118c7.35.576 14.014 2.71 21 5-3.99 1.33-5.992.183-10-1a132.026 132.026 0 0 0-4.25-.438C101 121 101 121 99 119.439L98 118Z"/><path fill="#F7B217" d="m144 100 2.313 1c2.678 1.174 2.678 1.174 5.687 1l-1 4-7-1v-5Z"/><path fill="#0B2845" d="M596 140c1 3 1 3 1 6l7 2v1h-10c-1.205-4.822-1.205-4.822 0-8l2-1Z"/><path fill="#254170" d="m685 138 4 2-1.563 1.188L686 143c.23 2.655.23 2.655 1 5l-4-1c.875-6.75.875-6.75 2-9Z"/><path fill="#102B50" d="m301 144 1 2 3.5.5 3.5.5 1 2c-5.22.18-9.073-.03-14-2v-2l5-1Z"/><path fill="#153D63" d="m197 137 1 5-3.438-.5c-2.273-.356-2.273-.356-4.562-.5l-1-3c2.928-.976 4.956-1.082 8-1Z"/><path fill="#EBC046" d="M305 112c2 2 2 2 2 7h14v1l-16 1v-9Z"/><path fill="#FAC42A" d="M535 100h1l.113 2.52.2 3.293.175 3.269c.543 3.093 1.065 4.048 3.512 5.918l-1.938.313L536 116l-1 3c-.195-2.416-.382-4.833-.563-7.25l-.17-2.066c-.249-3.426-.406-6.411.733-9.684Z"/><path fill="#F1B62E" d="M424 104c1.48-.027 2.958-.046 4.438-.063l2.496-.035C433 104 433 104 434 105c.04 1.666.043 3.334 0 5l-4-2v-2h-6v-2Z"/><path fill="#E9B43F" d="M386 94h7c.697 1.287 1.382 2.58 2.063 3.875l1.16 2.18L397 102l-1 2-3-1-1-7-5-1-1 3v-4Z"/><path fill="#EAB43F" d="M728 95c3.017.14 5.238.294 7.512 2.402 1.22 1.487 2.36 3.04 3.488 4.598l-2 4-1-5h-5v-4l-3-2Z"/><path fill="#07192C" d="m462 139 1 3-3 1v2l5-2c-1.313 2-1.313 2-3 4h-3v-2h-2c1.37-3.161 1.99-3.993 5-6Z"/><path fill="#204776" d="m431 140 1 2 2 1h-2l-1 4-2-2c-2.57-.648-2.57-.648-5-1l-1 2-1-3h3l1-2 2 2 3-3Z"/><path d="M634 139h5l-1 5-5 1c0-3 0-3 1-6Z"/><path fill="#ECB533" d="M344 101h2v13l-4-1 1-1c.234-1.849.413-3.705.563-5.563l.253-3.066L344 101Z"/><path fill="#E6B840" d="M433 95h1v6h-10l-1 3 1-5c3.478-1.16 5.459-.708 9 0v-4Z"/><path fill="#E4BB3A" d="M321 96h1v5l-2.75.375c-2.84.546-4.776 1.198-7.25 2.625v-5h9v-3Z"/><path fill="#F6BB1A" d="m614 97 5 1v5l-5 1v-7Z"/><path fill="#D4B246" d="M101 90c2 2 2 2 2 5h2v-3h2v5l-5 1c-1.354-2.709-1.065-5.01-1-8Z"/><path fill="#0D263A" d="M46.438 76.25 48 77c-2.313 2.5-2.313 2.5-5 5-3 0-3 0-6-2 6.4-4.062 6.4-4.062 9.438-3.75Z"/><path fill="#203944" d="M121 157v3l3 1v1h-10c4.75-5 4.75-5 7-5Z"/><path fill="#0A2034" d="m451 144 1.875 2.438c2.579 3.109 4.317 3.674 8.125 4.562-2.829 1.414-4.874 1.319-8 1-1.938-1.75-1.938-1.75-3-4 .313-2.25.313-2.25 1-4Z"/><path fill="#1D486E" d="m700 140 1 2 3 1-2 3-1.75-.563c-2.457-.477-3.894-.194-6.25.563.188-1.875.188-1.875 1-4 2.563-1.25 2.563-1.25 5-2Z"/><path fill="#E2B94B" d="M649 114h2v5h5l1-4c.043 1.666.04 3.334 0 5-1 1-1 1-4 1.125-3-.125-3-.125-4-1.125-.04-2-.043-4 0-6Z"/><path fill="#153147" d="m86 98 11 1v2l-10 1-1-4Z"/><path fill="#0B2D54" d="m678 137 3 1-1 5-3-1c-2.143.39-2.143.39-4 1 2.75-4.875 2.75-4.875 5-6Z"/><path fill="#C19230" d="M119 124c4.128.607 7.332 2.038 11 4v1c-7.429-1-7.429-1-11-2v-3Z"/><path fill="#ECBC26" d="m699 110 1 2 3-1 1 2c2.017 1.134 2.017 1.134 4 2l-4 2-3-3-2 1c-.563-1.938-.563-1.938-1-4l1-1Z"/><path fill="#12324C" d="M124 106c4.602-.177 6.784-.108 11 2l-9 1v4l-3-1 1-6Z"/><path fill="#0D263E" d="m117 97 3.375.563c3.45.754 3.45.754 5.625-.563l-1 5c-3.438-.813-3.438-.813-7-2l-1-3Z"/><path fill="#EEB536" d="M613 94c2-.043 4-.04 6 0 1 1 1 1 1.098 2.848L620 103c-3-3.75-3-3.75-3-6h-3l-1-3Z"/><path fill="#092E51" d="M87 73c-1 3-1 3-3.313 4.688C81 79 81 79 77 79l1-3c6.111-3 6.111-3 9-3Z"/><path fill="#0E2F51" d="M622 144h2v2l3-2h3c-.75 1.938-.75 1.938-2 4-2 .875-2 .875-4 1l-2-2v-3Z"/><path fill="#0D2F55" d="M639 139h4v2l4 1-3 3c-2.5-1.313-2.5-1.313-5-3v-3Z"/><path fill="#000448" d="M644 139h10l-1 2 2 2c-4.649.324-7.224-.224-11-3v-1Z"/><path fill="#174066" d="M333 134c-.349 3.255-1.021 4.019-3.563 6.25L327 142c-1.125-4.75-1.125-4.75 0-7 2.089-.674 3.804-1 6-1Z"/><path fill="#F7BA1A" d="M561 114c4 0 4 0 5.75 1.375C568 117 568 117 568 119l-7-1v-4Z"/><path fill="#D0AB39" d="m72 109 1 2h3v2l9 2c-4.641 1.16-6.576.659-11-1-2.438-2.125-2.438-2.125-4-4l2-1Z"/><path fill="#203541" d="M49 100c4.355-.373 6.357.723 10 3 2.693.707 2.693.707 5 1l-1 2h-5v-2l-2.25-.313c-2.92-.73-4.482-1.755-6.75-3.687Z"/><path fill="#F0B631" d="m507 99 3 1a108.817 108.817 0 0 1-1 7l-2 1-2-7h2v-2Z"/><path fill="#0C3153" d="m84 57-1 5-6 2c3.138-7 3.138-7 7-7Z"/><path fill="#1F4673" d="m247 141 2 3c-1.25 1.5-1.25 1.5-3 3h-6c.375-1.938.375-1.938 1-4l2-1 1 2 3-3Z"/><path fill="#EBBB32" d="M106 121c1.605.31 3.209.623 4.813.938l2.707.527C116 123 116 123 119 124v2c-4.973-.497-8.638-1.553-13-4v-1Z"/><path fill="#1C3B5D" d="M198 142h3l1 5-7 2v-4h3v-3Z"/><path fill="#09264F" d="m613 144 1 2h3l2-2v2l2 1-1 2-7-1v-4Z"/><path fill="#071F3D" d="m550 143 1 2 4-1v2l2 1-1 2c-2.938-.375-2.938-.375-6-1l-1-2 1-3Z"/><path fill="#1D4974" d="m481 141 1 2 2 1c-2.974 1.24-5.853 2.3-9 3l1-5 5 1v-2Z"/><path fill="#112947" d="m289 142 1 3-1 2 4 1c-2.606.93-3.642 1.15-6.25.063L285 147c1.75-3.875 1.75-3.875 4-5Z"/><path fill="#244769" d="M415 140h4l2 5-2 1-2-2-2 2c-1-3-1-3 0-6Z"/><path fill="#1A3D6F" d="M296 140h5l1 4c-2.375.625-2.375.625-5 1l-2-2 1-3Z"/><path fill="#2D3E48" d="M110 119c9.41.964 9.41.964 14 2v3h-5v-2l-9-2v-1Z"/><path fill="#DEB34F" d="M572 105c2.915 1.074 4.778 1.778 7 4 .313 3.5.313 3.5 0 7l-3 2 1-8-2.5-1.375L572 107v-2Z"/><path fill="#FBDA0F" d="M723 103h1v10c-2-1-2-1-3-4l-2 1 1-5h2l1-2Z"/><path fill="#E7BF51" d="M293 95h1v14l-4 1-1-5 3 2 1-12Z"/><path fill="#CEAD71" d="M302 95h1v24h-1V95Z"/><path fill="#1D3D4E" d="M89 40v6h-5v-5c2-1 2-1 5-1Z"/><path fill="#0E2A4F" d="M381 144h7c-.813 1.938-.813 1.938-2 4l-3 1-3-3 1-2Z"/><path fill="#0C233D" d="m192 144 3 1v4h-5l-2-4 4 1v-2Z"/><path fill="#133E6A" d="M503 141c2.5 2.174 3.436 3.73 4 7h-5v-4h-2v-2l3-1Z"/><path fill="#1D3F68" d="M410 139c1.563 1.188 1.563 1.188 3 3-.313 2.688-.313 2.688-1 5h-6l1.438-1.188c1.914-2.22 2.175-3.946 2.562-6.812Z"/><path fill="#264D76" d="M314 136c-.313 2.375-.313 2.375-1 5l-3 2-2-4c3.75-3 3.75-3 6-3Z"/><path fill="#16375C" d="M408 135c3.125.375 3.125.375 6 1v4l-3-1-3 1v-2l-2-1 2-2Z"/><path fill="#F8BB1A" d="M627 112c2 3 2 3 2 7h-4v-6l2-1Z"/><path fill="#F8B91D" d="M383 115v4h-6l-1-3c3-1 3-1 7-1Z"/><path fill="#DBA82F" d="M58 108c1.437-.054 2.875-.093 4.313-.125l2.425-.07C67 108 67 108 70 110c-4.353.941-7.687 1.19-12 0v-2Z"/><path fill="#F2C233" d="m670 96 1 3 5 1-1 3h-2v-2h-3v5h-1l1-10Z"/><path fill="#1C3244" d="M89 86v6l-2 1-1-4-4 1v-2c2.647-1.46 3.894-2 7-2Z"/><path fill="#295076" d="m224 138-1 4h-4l-2-3c2.49-.687 4.379-1 7-1Z"/><path fill="#F5BA17" d="M368 114h6c-1 3-1 3-3 5h-3v-5Z"/><path fill="#1C3345" d="m66 107 15 1v3l-15-3v-1Z"/><path fill="#FABB1D" d="m477 100 7 2v4h-2l-1-2c-2.527-.656-2.527-.656-5-1l1-3Z"/><path fill="#223845" d="m88 70 2 1-1 5h-3l1-3-3 1-1-2c2.375-1.063 2.375-1.063 5-2Z"/><path fill="#0A2346" d="m372 142 3 1-1 4 4 2h-5c-1.063-2.375-1.063-2.375-2-5l1-2Z"/><path fill="#0D2F4E" d="m204 140 3 1-1.563 1.25L204 144c.228 2.163.228 2.163 1 4h-3c-.688-2.313-.688-2.313-1-5 1.438-1.813 1.438-1.813 3-3Z"/><path fill="#214671" d="m607 141 1 3-2.875.375c-3.212.342-3.212.342-5.125 2.625l1-5c2.076-.553 3.844-1 6-1Z"/><path fill="#1B375B" d="m690 134-1 5-4-1-1 2c.313-1.875.313-1.875 1-4 3-2 3-2 5-2Z"/><path fill="#142C44" d="M168 130h2c-1.477 4.677-1.477 4.677-4.125 6.313L164 137l-2-4h6v-3Z"/><path fill="#EBAD3D" d="M645 107h2v9l-2 1c-.194-1.478-.38-2.958-.563-4.438l-.316-2.496L644 108l1-1Z"/><path fill="#ECC12F" d="m561 105 7 1-2 4c-2.5-1.375-2.5-1.375-5-3v-2Z"/><path fill="#082338" d="m99 104 3 1v4l-10-2v-1l7 1v-3Z"/><path fill="#102643" d="m657 146 5 2-1 5h-2v-4l-3-1 1-2Z"/><path fill="#0C2B4A" d="m239 144 1 3 6-2 1 3c-3.053.981-4.947.981-8 0v-4Z"/><path fill="#0D294D" d="m441 138 1 4-4 3-2-4h2c1.625-1.458 1.625-1.458 3-3Z"/><path fill="#294E72" d="M630 137v6l-5-1c2.258-5 2.258-5 5-5Z"/><path fill="#1C3242" d="m313 134 2 1-1 3v-2l-3.375 2.063c-1.898 1.16-1.898 1.16-3.625 1.937l-2-1v-2l2.313-.375c2.89-.506 2.89-.506 5.687-2.625Z"/><path fill="#0E2B3F" d="m172 121 2 1a128.606 128.606 0 0 1-2 7l-2 1v-7h2v-2Z"/><path fill="#DBB649" d="m619 116 2 4c-1 1-1 1-4.563 1.063L613 121v-3l6 1v-3Z"/><path fill="#EDB52A" d="M397 104c2.152 3.228 2.2 4.284 2 8h-4l2-8Z"/><path fill="#E5B341" d="m408 103 3 1-4 9c-1.102-4.408-.587-5.892 1-10Z"/><path fill="#F5C026" d="M152 98h2v6l-3-1-1-3 2-2Zm-4 3h2l-1 2-1-2Z"/><path fill="#F9D31F" d="M693 95h2c.93 2.606 1.15 3.642.063 6.25L694 103c-2-3-2-3-3-6l2-2Z"/><path fill="#0D283F" d="m79 89 3 1-1 2h3v2l-6-1-1-3 2-1Z"/><path fill="#20446E" d="m517 141 1 4h3v2l-5 1c-.625-2.375-.625-2.375-1-5l2-2Z"/><path fill="#092646" d="m253 139 3 1h-2v5l-4-2 1-3 2-1Z"/><path fill="#E7B241" d="M739 106h1c-.615 6.523-.615 6.523-2.563 8.938L736 116l-2-4h4l1-6Z"/><path fill="#062A4C" d="m674 144 5 5h-6v-2l-2-1 3-2Z"/><path fill="#0D2F4C" d="m503 139 1.188 1.563L506 142c2.655-.23 2.655-.23 5-1v2l-3 1-2 3v-3h-2l-1-5Z"/><path fill="#061D2F" d="m203 133-3 1-1 2h-5l-1-2c3.38-1.04 6.478-1.08 10-1Z"/><path fill="#EC9D3D" d="M374 110h7l-1 3h-6v-3Z"/><path fill="#E0AF47" d="m319 104 4 1v5l-4 1 2-1-2-6Z"/><path fill="#F8B917" d="M406 99h2l1 4-4 3c-.043-2-.04-4 0-6l1-1Z"/><path fill="#F7BF1E" d="M463 95c2 2 2 2 2.125 4.625L465 102l-6-1 1.438-1.313c1.799-1.71 1.799-1.71 2.562-4.687Z"/><path fill="#EFB934" d="m547 95 5 1v4c-2.5-1.375-2.5-1.375-5-3v-2Z"/><path fill="#14344F" d="m250 148 2 2-2 4h-3c.573-2.867.861-3.861 3-6Z"/><path fill="#062E5A" d="M274 145h3l1 5h-4v-5Z"/><path fill="#0B2849" d="M534 143c2 1.375 2 1.375 4 3v2l2 1-6-1-1-3 1-2Z"/><path fill="#18406E" d="m368 142 3 1v2l2 2-4 2-1-7Z"/><path fill="#152F4D" d="M323 139c1 3 1 3 .063 5.188L322 146l-2-2v-3l3-2Z"/><path fill="#194274" d="m353 137 1 3c-1.375 2.563-1.375 2.563-3 5l-1 2h-2c1.335-3.594 2.96-6.755 5-10Z"/><path fill="#0D3352" d="m411 138 4 2-1 7-2-1c-.594-2.649-.742-5.292-1-8Z"/><path fill="#1B3957" d="m225 135-1 4h-7c4.625-4 4.625-4 8-4Z"/><path fill="#E2B342" d="m642 116 3 1v2c-3 2-3 2-7 2v-2h4v-3Z"/><path fill="#F4C118" d="m550 115 1 2h3v2l-8-1 4-3Z"/><path fill="#0C2E52" d="M91 110h6l-1 4c-1.938-.313-1.938-.313-4-1l-1-3Z"/><path fill="#F8BA29" d="m526 110 6 1-1 2h-6l1-3Z"/><path fill="#F4B43B" d="M228 99c1.675.286 3.344.618 5 1l1 3c-3.517 0-4.371-.824-7-3l1-1Z"/><path fill="#D8926C" d="M425 102h8v1h-8v-1Z"/><path fill="#DAA85F" d="M532 104h1v7h-1v-7Z"/><path fill="#CBCBB0" d="M435 104h1v7h-1v-7Z"/><path fill="#C8BC84" d="M532 94h1v7h-1v-7Z"/><path fill="#C9AC76" d="M532 114h1v6h-1v-6Z"/><path fill="#E1AE5D" d="M556 100h1v5h-1v-5Z"/><path fill="#FFBF7F" d="m364 102 1 4Z"/><path fill="#FFDF40" d="m706 102 4 1Z"/><path fill="#FFBF40" d="m526 102 4 1Z"/><path fill="#D4956A" d="m317 102 4 1Z"/><path fill="#FF0" d="m511 100 1 4Z"/><path fill="#FF9F9F" d="m435 96 1 4Z"/><path d="m640 144 3 1Z"/></svg>